<?xml version="1.0" encoding="utf-8" standalone="no"?>
<!DOCTYPE svg PUBLIC "-//W3C//DTD SVG 1.1//EN"
  "http://www.w3.org/Graphics/SVG/1.1/DTD/svg11.dtd">
<svg xmlns:xlink="http://www.w3.org/1999/xlink" width="434.515pt" height="339.42375pt" viewBox="0 0 434.515 339.42375" xmlns="http://www.w3.org/2000/svg" version="1.1">
 <metadata>
  <rdf:RDF xmlns:dc="http://purl.org/dc/elements/1.1/" xmlns:cc="http://creativecommons.org/ns#" xmlns:rdf="http://www.w3.org/1999/02/22-rdf-syntax-ns#">
   <cc:Work>
    <dc:type rdf:resource="http://purl.org/dc/dcmitype/StillImage"/>
    <dc:date>2023-08-11T11:15:03.077705</dc:date>
    <dc:format>image/svg+xml</dc:format>
    <dc:creator>
     <cc:Agent>
      <dc:title>Matplotlib v3.7.2, https://matplotlib.org/</dc:title>
     </cc:Agent>
    </dc:creator>
   </cc:Work>
  </rdf:RDF>
 </metadata>
 <defs>
  <style type="text/css">*{stroke-linejoin: round; stroke-linecap: butt}</style>
 </defs>
 <g id="figure_1">
  <g id="patch_1">
   <path d="M 0 339.42375 
L 434.515 339.42375 
L 434.515 0 
L 0 0 
z
" style="fill: #ffffff"/>
  </g>
  <g id="axes_1">
   <g id="patch_2">
    <path d="M 46.965625 301.8675 
L 404.085625 301.8675 
L 404.085625 35.7555 
L 46.965625 35.7555 
z
" style="fill: #ffffff"/>
   </g>
   <g id="patch_3">
    <path d="M 63.198352 301.8675 
L 77.955377 301.8675 
L 77.955377 301.8675 
L 63.198352 301.8675 
z
" clip-path="url(#p4d638075fc)" style="fill: #bf0700"/>
   </g>
   <g id="patch_4">
    <path d="M 77.955377 301.8675 
L 92.712402 301.8675 
L 92.712402 301.8675 
L 77.955377 301.8675 
z
" clip-path="url(#p4d638075fc)" style="fill: #bf0700"/>
   </g>
   <g id="patch_5">
    <path d="M 92.712402 301.8675 
L 107.469427 301.8675 
L 107.469427 301.8675 
L 92.712402 301.8675 
z
" clip-path="url(#p4d638075fc)" style="fill: #bf0700"/>
   </g>
   <g id="patch_6">
    <path d="M 107.469427 301.8675 
L 122.226451 301.8675 
L 122.226451 301.8675 
L 107.469427 301.8675 
z
" clip-path="url(#p4d638075fc)" style="fill: #bf0700"/>
   </g>
   <g id="patch_7">
    <path d="M 122.226451 301.8675 
L 136.983476 301.8675 
L 136.983476 301.8675 
L 122.226451 301.8675 
z
" clip-path="url(#p4d638075fc)" style="fill: #bf0700"/>
   </g>
   <g id="patch_8">
    <path d="M 136.983476 301.8675 
L 151.740501 301.8675 
L 151.740501 288.735894 
L 136.983476 288.735894 
z
" clip-path="url(#p4d638075fc)" style="fill: #bf0700"/>
   </g>
   <g id="patch_9">
    <path d="M 151.740501 301.8675 
L 166.497526 301.8675 
L 166.497526 291.362215 
L 151.740501 291.362215 
z
" clip-path="url(#p4d638075fc)" style="fill: #bf0700"/>
   </g>
   <g id="patch_10">
    <path d="M 166.497526 301.8675 
L 181.254551 301.8675 
L 181.254551 266.412163 
L 166.497526 266.412163 
z
" clip-path="url(#p4d638075fc)" style="fill: #bf0700"/>
   </g>
   <g id="patch_11">
    <path d="M 181.254551 301.8675 
L 196.011575 301.8675 
L 196.011575 188.935687 
L 181.254551 188.935687 
z
" clip-path="url(#p4d638075fc)" style="fill: #bf0700"/>
   </g>
   <g id="patch_12">
    <path d="M 196.011575 301.8675 
L 210.7686 301.8675 
L 210.7686 263.785842 
L 196.011575 263.785842 
z
" clip-path="url(#p4d638075fc)" style="fill: #bf0700"/>
   </g>
   <g id="patch_13">
    <path d="M 210.7686 301.8675 
L 225.525625 301.8675 
L 225.525625 48.4275 
L 210.7686 48.4275 
z
" clip-path="url(#p4d638075fc)" style="fill: #bf0700"/>
   </g>
   <g id="patch_14">
    <path d="M 225.525625 301.8675 
L 240.28265 301.8675 
L 240.28265 295.301697 
L 225.525625 295.301697 
z
" clip-path="url(#p4d638075fc)" style="fill: #bf0700"/>
   </g>
   <g id="patch_15">
    <path d="M 240.28265 301.8675 
L 255.039675 301.8675 
L 255.039675 287.422733 
L 240.28265 287.422733 
z
" clip-path="url(#p4d638075fc)" style="fill: #bf0700"/>
   </g>
   <g id="patch_16">
    <path d="M 255.039675 301.8675 
L 269.796699 301.8675 
L 269.796699 301.8675 
L 255.039675 301.8675 
z
" clip-path="url(#p4d638075fc)" style="fill: #bf0700"/>
   </g>
   <g id="patch_17">
    <path d="M 269.796699 301.8675 
L 284.553724 301.8675 
L 284.553724 301.8675 
L 269.796699 301.8675 
z
" clip-path="url(#p4d638075fc)" style="fill: #bf0700"/>
   </g>
   <g id="patch_18">
    <path d="M 284.553724 301.8675 
L 299.310749 301.8675 
L 299.310749 301.8675 
L 284.553724 301.8675 
z
" clip-path="url(#p4d638075fc)" style="fill: #bf0700"/>
   </g>
   <g id="patch_19">
    <path d="M 299.310749 301.8675 
L 314.067774 301.8675 
L 314.067774 301.8675 
L 299.310749 301.8675 
z
" clip-path="url(#p4d638075fc)" style="fill: #bf0700"/>
   </g>
   <g id="patch_20">
    <path d="M 314.067774 301.8675 
L 328.824799 301.8675 
L 328.824799 301.8675 
L 314.067774 301.8675 
z
" clip-path="url(#p4d638075fc)" style="fill: #bf0700"/>
   </g>
   <g id="patch_21">
    <path d="M 328.824799 301.8675 
L 343.581823 301.8675 
L 343.581823 301.8675 
L 328.824799 301.8675 
z
" clip-path="url(#p4d638075fc)" style="fill: #bf0700"/>
   </g>
   <g id="patch_22">
    <path d="M 343.581823 301.8675 
L 358.338848 301.8675 
L 358.338848 301.8675 
L 343.581823 301.8675 
z
" clip-path="url(#p4d638075fc)" style="fill: #bf0700"/>
   </g>
   <g id="patch_23">
    <path d="M 358.338848 301.8675 
L 373.095873 301.8675 
L 373.095873 301.8675 
L 358.338848 301.8675 
z
" clip-path="url(#p4d638075fc)" style="fill: #bf0700"/>
   </g>
   <g id="patch_24">
    <path d="M 373.095873 301.8675 
L 387.852898 301.8675 
L 387.852898 301.8675 
L 373.095873 301.8675 
z
" clip-path="url(#p4d638075fc)" style="fill: #bf0700"/>
   </g>
   <g id="matplotlib.axis_1">
    <g id="xtick_1">
     <g id="line2d_1">
      <defs>
       <path id="mb2039df7d4" d="M 0 0 
L 0 3.5 
" style="stroke: #000000; stroke-width: 0.8"/>
      </defs>
      <g>
       <use xlink:href="#mb2039df7d4" x="63.198352" y="301.8675" style="stroke: #000000; stroke-width: 0.8"/>
      </g>
     </g>
     <g id="text_1">
      <!-- −20 -->
      <g transform="translate(52.646009 316.465937) scale(0.1 -0.1)">
       <defs>
        <path id="DejaVuSans-2212" d="M 678 2272 
L 4684 2272 
L 4684 1741 
L 678 1741 
L 678 2272 
z
" transform="scale(0.015625)"/>
        <path id="DejaVuSans-32" d="M 1228 531 
L 3431 531 
L 3431 0 
L 469 0 
L 469 531 
Q 828 903 1448 1529 
Q 2069 2156 2228 2338 
Q 2531 2678 2651 2914 
Q 2772 3150 2772 3378 
Q 2772 3750 2511 3984 
Q 2250 4219 1831 4219 
Q 1534 4219 1204 4116 
Q 875 4013 500 3803 
L 500 4441 
Q 881 4594 1212 4672 
Q 1544 4750 1819 4750 
Q 2544 4750 2975 4387 
Q 3406 4025 3406 3419 
Q 3406 3131 3298 2873 
Q 3191 2616 2906 2266 
Q 2828 2175 2409 1742 
Q 1991 1309 1228 531 
z
" transform="scale(0.015625)"/>
        <path id="DejaVuSans-30" d="M 2034 4250 
Q 1547 4250 1301 3770 
Q 1056 3291 1056 2328 
Q 1056 1369 1301 889 
Q 1547 409 2034 409 
Q 2525 409 2770 889 
Q 3016 1369 3016 2328 
Q 3016 3291 2770 3770 
Q 2525 4250 2034 4250 
z
M 2034 4750 
Q 2819 4750 3233 4129 
Q 3647 3509 3647 2328 
Q 3647 1150 3233 529 
Q 2819 -91 2034 -91 
Q 1250 -91 836 529 
Q 422 1150 422 2328 
Q 422 3509 836 4129 
Q 1250 4750 2034 4750 
z
" transform="scale(0.015625)"/>
       </defs>
       <use xlink:href="#DejaVuSans-2212"/>
       <use xlink:href="#DejaVuSans-32" x="83.789062"/>
       <use xlink:href="#DejaVuSans-30" x="147.412109"/>
      </g>
     </g>
    </g>
    <g id="xtick_2">
     <g id="line2d_2">
      <g>
       <use xlink:href="#mb2039df7d4" x="103.78017" y="301.8675" style="stroke: #000000; stroke-width: 0.8"/>
      </g>
     </g>
     <g id="text_2">
      <!-- −15 -->
      <g transform="translate(93.227827 316.465937) scale(0.1 -0.1)">
       <defs>
        <path id="DejaVuSans-31" d="M 794 531 
L 1825 531 
L 1825 4091 
L 703 3866 
L 703 4441 
L 1819 4666 
L 2450 4666 
L 2450 531 
L 3481 531 
L 3481 0 
L 794 0 
L 794 531 
z
" transform="scale(0.015625)"/>
        <path id="DejaVuSans-35" d="M 691 4666 
L 3169 4666 
L 3169 4134 
L 1269 4134 
L 1269 2991 
Q 1406 3038 1543 3061 
Q 1681 3084 1819 3084 
Q 2600 3084 3056 2656 
Q 3513 2228 3513 1497 
Q 3513 744 3044 326 
Q 2575 -91 1722 -91 
Q 1428 -91 1123 -41 
Q 819 9 494 109 
L 494 744 
Q 775 591 1075 516 
Q 1375 441 1709 441 
Q 2250 441 2565 725 
Q 2881 1009 2881 1497 
Q 2881 1984 2565 2268 
Q 2250 2553 1709 2553 
Q 1456 2553 1204 2497 
Q 953 2441 691 2322 
L 691 4666 
z
" transform="scale(0.015625)"/>
       </defs>
       <use xlink:href="#DejaVuSans-2212"/>
       <use xlink:href="#DejaVuSans-31" x="83.789062"/>
       <use xlink:href="#DejaVuSans-35" x="147.412109"/>
      </g>
     </g>
    </g>
    <g id="xtick_3">
     <g id="line2d_3">
      <g>
       <use xlink:href="#mb2039df7d4" x="144.361989" y="301.8675" style="stroke: #000000; stroke-width: 0.8"/>
      </g>
     </g>
     <g id="text_3">
      <!-- −10 -->
      <g transform="translate(133.809645 316.465937) scale(0.1 -0.1)">
       <use xlink:href="#DejaVuSans-2212"/>
       <use xlink:href="#DejaVuSans-31" x="83.789062"/>
       <use xlink:href="#DejaVuSans-30" x="147.412109"/>
      </g>
     </g>
    </g>
    <g id="xtick_4">
     <g id="line2d_4">
      <g>
       <use xlink:href="#mb2039df7d4" x="184.943807" y="301.8675" style="stroke: #000000; stroke-width: 0.8"/>
      </g>
     </g>
     <g id="text_4">
      <!-- −5 -->
      <g transform="translate(177.572713 316.465937) scale(0.1 -0.1)">
       <use xlink:href="#DejaVuSans-2212"/>
       <use xlink:href="#DejaVuSans-35" x="83.789062"/>
      </g>
     </g>
    </g>
    <g id="xtick_5">
     <g id="line2d_5">
      <g>
       <use xlink:href="#mb2039df7d4" x="225.525625" y="301.8675" style="stroke: #000000; stroke-width: 0.8"/>
      </g>
     </g>
     <g id="text_5">
      <!-- 0 -->
      <g transform="translate(222.344375 316.465937) scale(0.1 -0.1)">
       <use xlink:href="#DejaVuSans-30"/>
      </g>
     </g>
    </g>
    <g id="xtick_6">
     <g id="line2d_6">
      <g>
       <use xlink:href="#mb2039df7d4" x="266.107443" y="301.8675" style="stroke: #000000; stroke-width: 0.8"/>
      </g>
     </g>
     <g id="text_6">
      <!-- 5 -->
      <g transform="translate(262.926193 316.465937) scale(0.1 -0.1)">
       <use xlink:href="#DejaVuSans-35"/>
      </g>
     </g>
    </g>
    <g id="xtick_7">
     <g id="line2d_7">
      <g>
       <use xlink:href="#mb2039df7d4" x="306.689261" y="301.8675" style="stroke: #000000; stroke-width: 0.8"/>
      </g>
     </g>
     <g id="text_7">
      <!-- 10 -->
      <g transform="translate(300.326761 316.465937) scale(0.1 -0.1)">
       <use xlink:href="#DejaVuSans-31"/>
       <use xlink:href="#DejaVuSans-30" x="63.623047"/>
      </g>
     </g>
    </g>
    <g id="xtick_8">
     <g id="line2d_8">
      <g>
       <use xlink:href="#mb2039df7d4" x="347.27108" y="301.8675" style="stroke: #000000; stroke-width: 0.8"/>
      </g>
     </g>
     <g id="text_8">
      <!-- 15 -->
      <g transform="translate(340.90858 316.465937) scale(0.1 -0.1)">
       <use xlink:href="#DejaVuSans-31"/>
       <use xlink:href="#DejaVuSans-35" x="63.623047"/>
      </g>
     </g>
    </g>
    <g id="xtick_9">
     <g id="line2d_9">
      <g>
       <use xlink:href="#mb2039df7d4" x="387.852898" y="301.8675" style="stroke: #000000; stroke-width: 0.8"/>
      </g>
     </g>
     <g id="text_9">
      <!-- 20 -->
      <g transform="translate(381.490398 316.465937) scale(0.1 -0.1)">
       <use xlink:href="#DejaVuSans-32"/>
       <use xlink:href="#DejaVuSans-30" x="63.623047"/>
      </g>
     </g>
    </g>
    <g id="text_10">
     <!-- Difference in absolute residuals (kJ/mol) -->
     <g transform="translate(125.575625 330.144062) scale(0.1 -0.1)">
      <defs>
       <path id="DejaVuSans-44" d="M 1259 4147 
L 1259 519 
L 2022 519 
Q 2988 519 3436 956 
Q 3884 1394 3884 2338 
Q 3884 3275 3436 3711 
Q 2988 4147 2022 4147 
L 1259 4147 
z
M 628 4666 
L 1925 4666 
Q 3281 4666 3915 4102 
Q 4550 3538 4550 2338 
Q 4550 1131 3912 565 
Q 3275 0 1925 0 
L 628 0 
L 628 4666 
z
" transform="scale(0.015625)"/>
       <path id="DejaVuSans-69" d="M 603 3500 
L 1178 3500 
L 1178 0 
L 603 0 
L 603 3500 
z
M 603 4863 
L 1178 4863 
L 1178 4134 
L 603 4134 
L 603 4863 
z
" transform="scale(0.015625)"/>
       <path id="DejaVuSans-66" d="M 2375 4863 
L 2375 4384 
L 1825 4384 
Q 1516 4384 1395 4259 
Q 1275 4134 1275 3809 
L 1275 3500 
L 2222 3500 
L 2222 3053 
L 1275 3053 
L 1275 0 
L 697 0 
L 697 3053 
L 147 3053 
L 147 3500 
L 697 3500 
L 697 3744 
Q 697 4328 969 4595 
Q 1241 4863 1831 4863 
L 2375 4863 
z
" transform="scale(0.015625)"/>
       <path id="DejaVuSans-65" d="M 3597 1894 
L 3597 1613 
L 953 1613 
Q 991 1019 1311 708 
Q 1631 397 2203 397 
Q 2534 397 2845 478 
Q 3156 559 3463 722 
L 3463 178 
Q 3153 47 2828 -22 
Q 2503 -91 2169 -91 
Q 1331 -91 842 396 
Q 353 884 353 1716 
Q 353 2575 817 3079 
Q 1281 3584 2069 3584 
Q 2775 3584 3186 3129 
Q 3597 2675 3597 1894 
z
M 3022 2063 
Q 3016 2534 2758 2815 
Q 2500 3097 2075 3097 
Q 1594 3097 1305 2825 
Q 1016 2553 972 2059 
L 3022 2063 
z
" transform="scale(0.015625)"/>
       <path id="DejaVuSans-72" d="M 2631 2963 
Q 2534 3019 2420 3045 
Q 2306 3072 2169 3072 
Q 1681 3072 1420 2755 
Q 1159 2438 1159 1844 
L 1159 0 
L 581 0 
L 581 3500 
L 1159 3500 
L 1159 2956 
Q 1341 3275 1631 3429 
Q 1922 3584 2338 3584 
Q 2397 3584 2469 3576 
Q 2541 3569 2628 3553 
L 2631 2963 
z
" transform="scale(0.015625)"/>
       <path id="DejaVuSans-6e" d="M 3513 2113 
L 3513 0 
L 2938 0 
L 2938 2094 
Q 2938 2591 2744 2837 
Q 2550 3084 2163 3084 
Q 1697 3084 1428 2787 
Q 1159 2491 1159 1978 
L 1159 0 
L 581 0 
L 581 3500 
L 1159 3500 
L 1159 2956 
Q 1366 3272 1645 3428 
Q 1925 3584 2291 3584 
Q 2894 3584 3203 3211 
Q 3513 2838 3513 2113 
z
" transform="scale(0.015625)"/>
       <path id="DejaVuSans-63" d="M 3122 3366 
L 3122 2828 
Q 2878 2963 2633 3030 
Q 2388 3097 2138 3097 
Q 1578 3097 1268 2742 
Q 959 2388 959 1747 
Q 959 1106 1268 751 
Q 1578 397 2138 397 
Q 2388 397 2633 464 
Q 2878 531 3122 666 
L 3122 134 
Q 2881 22 2623 -34 
Q 2366 -91 2075 -91 
Q 1284 -91 818 406 
Q 353 903 353 1747 
Q 353 2603 823 3093 
Q 1294 3584 2113 3584 
Q 2378 3584 2631 3529 
Q 2884 3475 3122 3366 
z
" transform="scale(0.015625)"/>
       <path id="DejaVuSans-20" transform="scale(0.015625)"/>
       <path id="DejaVuSans-61" d="M 2194 1759 
Q 1497 1759 1228 1600 
Q 959 1441 959 1056 
Q 959 750 1161 570 
Q 1363 391 1709 391 
Q 2188 391 2477 730 
Q 2766 1069 2766 1631 
L 2766 1759 
L 2194 1759 
z
M 3341 1997 
L 3341 0 
L 2766 0 
L 2766 531 
Q 2569 213 2275 61 
Q 1981 -91 1556 -91 
Q 1019 -91 701 211 
Q 384 513 384 1019 
Q 384 1609 779 1909 
Q 1175 2209 1959 2209 
L 2766 2209 
L 2766 2266 
Q 2766 2663 2505 2880 
Q 2244 3097 1772 3097 
Q 1472 3097 1187 3025 
Q 903 2953 641 2809 
L 641 3341 
Q 956 3463 1253 3523 
Q 1550 3584 1831 3584 
Q 2591 3584 2966 3190 
Q 3341 2797 3341 1997 
z
" transform="scale(0.015625)"/>
       <path id="DejaVuSans-62" d="M 3116 1747 
Q 3116 2381 2855 2742 
Q 2594 3103 2138 3103 
Q 1681 3103 1420 2742 
Q 1159 2381 1159 1747 
Q 1159 1113 1420 752 
Q 1681 391 2138 391 
Q 2594 391 2855 752 
Q 3116 1113 3116 1747 
z
M 1159 2969 
Q 1341 3281 1617 3432 
Q 1894 3584 2278 3584 
Q 2916 3584 3314 3078 
Q 3713 2572 3713 1747 
Q 3713 922 3314 415 
Q 2916 -91 2278 -91 
Q 1894 -91 1617 61 
Q 1341 213 1159 525 
L 1159 0 
L 581 0 
L 581 4863 
L 1159 4863 
L 1159 2969 
z
" transform="scale(0.015625)"/>
       <path id="DejaVuSans-73" d="M 2834 3397 
L 2834 2853 
Q 2591 2978 2328 3040 
Q 2066 3103 1784 3103 
Q 1356 3103 1142 2972 
Q 928 2841 928 2578 
Q 928 2378 1081 2264 
Q 1234 2150 1697 2047 
L 1894 2003 
Q 2506 1872 2764 1633 
Q 3022 1394 3022 966 
Q 3022 478 2636 193 
Q 2250 -91 1575 -91 
Q 1294 -91 989 -36 
Q 684 19 347 128 
L 347 722 
Q 666 556 975 473 
Q 1284 391 1588 391 
Q 1994 391 2212 530 
Q 2431 669 2431 922 
Q 2431 1156 2273 1281 
Q 2116 1406 1581 1522 
L 1381 1569 
Q 847 1681 609 1914 
Q 372 2147 372 2553 
Q 372 3047 722 3315 
Q 1072 3584 1716 3584 
Q 2034 3584 2315 3537 
Q 2597 3491 2834 3397 
z
" transform="scale(0.015625)"/>
       <path id="DejaVuSans-6f" d="M 1959 3097 
Q 1497 3097 1228 2736 
Q 959 2375 959 1747 
Q 959 1119 1226 758 
Q 1494 397 1959 397 
Q 2419 397 2687 759 
Q 2956 1122 2956 1747 
Q 2956 2369 2687 2733 
Q 2419 3097 1959 3097 
z
M 1959 3584 
Q 2709 3584 3137 3096 
Q 3566 2609 3566 1747 
Q 3566 888 3137 398 
Q 2709 -91 1959 -91 
Q 1206 -91 779 398 
Q 353 888 353 1747 
Q 353 2609 779 3096 
Q 1206 3584 1959 3584 
z
" transform="scale(0.015625)"/>
       <path id="DejaVuSans-6c" d="M 603 4863 
L 1178 4863 
L 1178 0 
L 603 0 
L 603 4863 
z
" transform="scale(0.015625)"/>
       <path id="DejaVuSans-75" d="M 544 1381 
L 544 3500 
L 1119 3500 
L 1119 1403 
Q 1119 906 1312 657 
Q 1506 409 1894 409 
Q 2359 409 2629 706 
Q 2900 1003 2900 1516 
L 2900 3500 
L 3475 3500 
L 3475 0 
L 2900 0 
L 2900 538 
Q 2691 219 2414 64 
Q 2138 -91 1772 -91 
Q 1169 -91 856 284 
Q 544 659 544 1381 
z
M 1991 3584 
L 1991 3584 
z
" transform="scale(0.015625)"/>
       <path id="DejaVuSans-74" d="M 1172 4494 
L 1172 3500 
L 2356 3500 
L 2356 3053 
L 1172 3053 
L 1172 1153 
Q 1172 725 1289 603 
Q 1406 481 1766 481 
L 2356 481 
L 2356 0 
L 1766 0 
Q 1100 0 847 248 
Q 594 497 594 1153 
L 594 3053 
L 172 3053 
L 172 3500 
L 594 3500 
L 594 4494 
L 1172 4494 
z
" transform="scale(0.015625)"/>
       <path id="DejaVuSans-64" d="M 2906 2969 
L 2906 4863 
L 3481 4863 
L 3481 0 
L 2906 0 
L 2906 525 
Q 2725 213 2448 61 
Q 2172 -91 1784 -91 
Q 1150 -91 751 415 
Q 353 922 353 1747 
Q 353 2572 751 3078 
Q 1150 3584 1784 3584 
Q 2172 3584 2448 3432 
Q 2725 3281 2906 2969 
z
M 947 1747 
Q 947 1113 1208 752 
Q 1469 391 1925 391 
Q 2381 391 2643 752 
Q 2906 1113 2906 1747 
Q 2906 2381 2643 2742 
Q 2381 3103 1925 3103 
Q 1469 3103 1208 2742 
Q 947 2381 947 1747 
z
" transform="scale(0.015625)"/>
       <path id="DejaVuSans-28" d="M 1984 4856 
Q 1566 4138 1362 3434 
Q 1159 2731 1159 2009 
Q 1159 1288 1364 580 
Q 1569 -128 1984 -844 
L 1484 -844 
Q 1016 -109 783 600 
Q 550 1309 550 2009 
Q 550 2706 781 3412 
Q 1013 4119 1484 4856 
L 1984 4856 
z
" transform="scale(0.015625)"/>
       <path id="DejaVuSans-6b" d="M 581 4863 
L 1159 4863 
L 1159 1991 
L 2875 3500 
L 3609 3500 
L 1753 1863 
L 3688 0 
L 2938 0 
L 1159 1709 
L 1159 0 
L 581 0 
L 581 4863 
z
" transform="scale(0.015625)"/>
       <path id="DejaVuSans-4a" d="M 628 4666 
L 1259 4666 
L 1259 325 
Q 1259 -519 939 -900 
Q 619 -1281 -91 -1281 
L -331 -1281 
L -331 -750 
L -134 -750 
Q 284 -750 456 -515 
Q 628 -281 628 325 
L 628 4666 
z
" transform="scale(0.015625)"/>
       <path id="DejaVuSans-2f" d="M 1625 4666 
L 2156 4666 
L 531 -594 
L 0 -594 
L 1625 4666 
z
" transform="scale(0.015625)"/>
       <path id="DejaVuSans-6d" d="M 3328 2828 
Q 3544 3216 3844 3400 
Q 4144 3584 4550 3584 
Q 5097 3584 5394 3201 
Q 5691 2819 5691 2113 
L 5691 0 
L 5113 0 
L 5113 2094 
Q 5113 2597 4934 2840 
Q 4756 3084 4391 3084 
Q 3944 3084 3684 2787 
Q 3425 2491 3425 1978 
L 3425 0 
L 2847 0 
L 2847 2094 
Q 2847 2600 2669 2842 
Q 2491 3084 2119 3084 
Q 1678 3084 1418 2786 
Q 1159 2488 1159 1978 
L 1159 0 
L 581 0 
L 581 3500 
L 1159 3500 
L 1159 2956 
Q 1356 3278 1631 3431 
Q 1906 3584 2284 3584 
Q 2666 3584 2933 3390 
Q 3200 3197 3328 2828 
z
" transform="scale(0.015625)"/>
       <path id="DejaVuSans-29" d="M 513 4856 
L 1013 4856 
Q 1481 4119 1714 3412 
Q 1947 2706 1947 2009 
Q 1947 1309 1714 600 
Q 1481 -109 1013 -844 
L 513 -844 
Q 928 -128 1133 580 
Q 1338 1288 1338 2009 
Q 1338 2731 1133 3434 
Q 928 4138 513 4856 
z
" transform="scale(0.015625)"/>
      </defs>
      <use xlink:href="#DejaVuSans-44"/>
      <use xlink:href="#DejaVuSans-69" x="77.001953"/>
      <use xlink:href="#DejaVuSans-66" x="104.785156"/>
      <use xlink:href="#DejaVuSans-66" x="139.990234"/>
      <use xlink:href="#DejaVuSans-65" x="175.195312"/>
      <use xlink:href="#DejaVuSans-72" x="236.71875"/>
      <use xlink:href="#DejaVuSans-65" x="275.582031"/>
      <use xlink:href="#DejaVuSans-6e" x="337.105469"/>
      <use xlink:href="#DejaVuSans-63" x="400.484375"/>
      <use xlink:href="#DejaVuSans-65" x="455.464844"/>
      <use xlink:href="#DejaVuSans-20" x="516.988281"/>
      <use xlink:href="#DejaVuSans-69" x="548.775391"/>
      <use xlink:href="#DejaVuSans-6e" x="576.558594"/>
      <use xlink:href="#DejaVuSans-20" x="639.9375"/>
      <use xlink:href="#DejaVuSans-61" x="671.724609"/>
      <use xlink:href="#DejaVuSans-62" x="733.003906"/>
      <use xlink:href="#DejaVuSans-73" x="796.480469"/>
      <use xlink:href="#DejaVuSans-6f" x="848.580078"/>
      <use xlink:href="#DejaVuSans-6c" x="909.761719"/>
      <use xlink:href="#DejaVuSans-75" x="937.544922"/>
      <use xlink:href="#DejaVuSans-74" x="1000.923828"/>
      <use xlink:href="#DejaVuSans-65" x="1040.132812"/>
      <use xlink:href="#DejaVuSans-20" x="1101.65625"/>
      <use xlink:href="#DejaVuSans-72" x="1133.443359"/>
      <use xlink:href="#DejaVuSans-65" x="1172.306641"/>
      <use xlink:href="#DejaVuSans-73" x="1233.830078"/>
      <use xlink:href="#DejaVuSans-69" x="1285.929688"/>
      <use xlink:href="#DejaVuSans-64" x="1313.712891"/>
      <use xlink:href="#DejaVuSans-75" x="1377.189453"/>
      <use xlink:href="#DejaVuSans-61" x="1440.568359"/>
      <use xlink:href="#DejaVuSans-6c" x="1501.847656"/>
      <use xlink:href="#DejaVuSans-73" x="1529.630859"/>
      <use xlink:href="#DejaVuSans-20" x="1581.730469"/>
      <use xlink:href="#DejaVuSans-28" x="1613.517578"/>
      <use xlink:href="#DejaVuSans-6b" x="1652.53125"/>
      <use xlink:href="#DejaVuSans-4a" x="1710.441406"/>
      <use xlink:href="#DejaVuSans-2f" x="1739.933594"/>
      <use xlink:href="#DejaVuSans-6d" x="1773.625"/>
      <use xlink:href="#DejaVuSans-6f" x="1871.037109"/>
      <use xlink:href="#DejaVuSans-6c" x="1932.21875"/>
      <use xlink:href="#DejaVuSans-29" x="1960.001953"/>
     </g>
    </g>
   </g>
   <g id="matplotlib.axis_2">
    <g id="ytick_1">
     <g id="line2d_10">
      <defs>
       <path id="m2989f16aa4" d="M 0 0 
L -3.5 0 
" style="stroke: #000000; stroke-width: 0.8"/>
      </defs>
      <g>
       <use xlink:href="#m2989f16aa4" x="46.965625" y="301.8675" style="stroke: #000000; stroke-width: 0.8"/>
      </g>
     </g>
     <g id="text_11">
      <!-- 0 -->
      <g transform="translate(33.603125 305.666719) scale(0.1 -0.1)">
       <use xlink:href="#DejaVuSans-30"/>
      </g>
     </g>
    </g>
    <g id="ytick_2">
     <g id="line2d_11">
      <g>
       <use xlink:href="#m2989f16aa4" x="46.965625" y="269.038484" style="stroke: #000000; stroke-width: 0.8"/>
      </g>
     </g>
     <g id="text_12">
      <!-- 25 -->
      <g transform="translate(27.240625 272.837703) scale(0.1 -0.1)">
       <use xlink:href="#DejaVuSans-32"/>
       <use xlink:href="#DejaVuSans-35" x="63.623047"/>
      </g>
     </g>
    </g>
    <g id="ytick_3">
     <g id="line2d_12">
      <g>
       <use xlink:href="#m2989f16aa4" x="46.965625" y="236.209469" style="stroke: #000000; stroke-width: 0.8"/>
      </g>
     </g>
     <g id="text_13">
      <!-- 50 -->
      <g transform="translate(27.240625 240.008688) scale(0.1 -0.1)">
       <use xlink:href="#DejaVuSans-35"/>
       <use xlink:href="#DejaVuSans-30" x="63.623047"/>
      </g>
     </g>
    </g>
    <g id="ytick_4">
     <g id="line2d_13">
      <g>
       <use xlink:href="#m2989f16aa4" x="46.965625" y="203.380453" style="stroke: #000000; stroke-width: 0.8"/>
      </g>
     </g>
     <g id="text_14">
      <!-- 75 -->
      <g transform="translate(27.240625 207.179672) scale(0.1 -0.1)">
       <defs>
        <path id="DejaVuSans-37" d="M 525 4666 
L 3525 4666 
L 3525 4397 
L 1831 0 
L 1172 0 
L 2766 4134 
L 525 4134 
L 525 4666 
z
" transform="scale(0.015625)"/>
       </defs>
       <use xlink:href="#DejaVuSans-37"/>
       <use xlink:href="#DejaVuSans-35" x="63.623047"/>
      </g>
     </g>
    </g>
    <g id="ytick_5">
     <g id="line2d_14">
      <g>
       <use xlink:href="#m2989f16aa4" x="46.965625" y="170.551438" style="stroke: #000000; stroke-width: 0.8"/>
      </g>
     </g>
     <g id="text_15">
      <!-- 100 -->
      <g transform="translate(20.878125 174.350657) scale(0.1 -0.1)">
       <use xlink:href="#DejaVuSans-31"/>
       <use xlink:href="#DejaVuSans-30" x="63.623047"/>
       <use xlink:href="#DejaVuSans-30" x="127.246094"/>
      </g>
     </g>
    </g>
    <g id="ytick_6">
     <g id="line2d_15">
      <g>
       <use xlink:href="#m2989f16aa4" x="46.965625" y="137.722422" style="stroke: #000000; stroke-width: 0.8"/>
      </g>
     </g>
     <g id="text_16">
      <!-- 125 -->
      <g transform="translate(20.878125 141.521641) scale(0.1 -0.1)">
       <use xlink:href="#DejaVuSans-31"/>
       <use xlink:href="#DejaVuSans-32" x="63.623047"/>
       <use xlink:href="#DejaVuSans-35" x="127.246094"/>
      </g>
     </g>
    </g>
    <g id="ytick_7">
     <g id="line2d_16">
      <g>
       <use xlink:href="#m2989f16aa4" x="46.965625" y="104.893407" style="stroke: #000000; stroke-width: 0.8"/>
      </g>
     </g>
     <g id="text_17">
      <!-- 150 -->
      <g transform="translate(20.878125 108.692625) scale(0.1 -0.1)">
       <use xlink:href="#DejaVuSans-31"/>
       <use xlink:href="#DejaVuSans-35" x="63.623047"/>
       <use xlink:href="#DejaVuSans-30" x="127.246094"/>
      </g>
     </g>
    </g>
    <g id="ytick_8">
     <g id="line2d_17">
      <g>
       <use xlink:href="#m2989f16aa4" x="46.965625" y="72.064391" style="stroke: #000000; stroke-width: 0.8"/>
      </g>
     </g>
     <g id="text_18">
      <!-- 175 -->
      <g transform="translate(20.878125 75.86361) scale(0.1 -0.1)">
       <use xlink:href="#DejaVuSans-31"/>
       <use xlink:href="#DejaVuSans-37" x="63.623047"/>
       <use xlink:href="#DejaVuSans-35" x="127.246094"/>
      </g>
     </g>
    </g>
    <g id="ytick_9">
     <g id="line2d_18">
      <g>
       <use xlink:href="#m2989f16aa4" x="46.965625" y="39.235376" style="stroke: #000000; stroke-width: 0.8"/>
      </g>
     </g>
     <g id="text_19">
      <!-- 200 -->
      <g transform="translate(20.878125 43.034594) scale(0.1 -0.1)">
       <use xlink:href="#DejaVuSans-32"/>
       <use xlink:href="#DejaVuSans-30" x="63.623047"/>
       <use xlink:href="#DejaVuSans-30" x="127.246094"/>
      </g>
     </g>
    </g>
    <g id="text_20">
     <!-- Frequency -->
     <g transform="translate(14.798438 194.641187) rotate(-90) scale(0.1 -0.1)">
      <defs>
       <path id="DejaVuSans-46" d="M 628 4666 
L 3309 4666 
L 3309 4134 
L 1259 4134 
L 1259 2759 
L 3109 2759 
L 3109 2228 
L 1259 2228 
L 1259 0 
L 628 0 
L 628 4666 
z
" transform="scale(0.015625)"/>
       <path id="DejaVuSans-71" d="M 947 1747 
Q 947 1113 1208 752 
Q 1469 391 1925 391 
Q 2381 391 2643 752 
Q 2906 1113 2906 1747 
Q 2906 2381 2643 2742 
Q 2381 3103 1925 3103 
Q 1469 3103 1208 2742 
Q 947 2381 947 1747 
z
M 2906 525 
Q 2725 213 2448 61 
Q 2172 -91 1784 -91 
Q 1150 -91 751 415 
Q 353 922 353 1747 
Q 353 2572 751 3078 
Q 1150 3584 1784 3584 
Q 2172 3584 2448 3432 
Q 2725 3281 2906 2969 
L 2906 3500 
L 3481 3500 
L 3481 -1331 
L 2906 -1331 
L 2906 525 
z
" transform="scale(0.015625)"/>
       <path id="DejaVuSans-79" d="M 2059 -325 
Q 1816 -950 1584 -1140 
Q 1353 -1331 966 -1331 
L 506 -1331 
L 506 -850 
L 844 -850 
Q 1081 -850 1212 -737 
Q 1344 -625 1503 -206 
L 1606 56 
L 191 3500 
L 800 3500 
L 1894 763 
L 2988 3500 
L 3597 3500 
L 2059 -325 
z
" transform="scale(0.015625)"/>
      </defs>
      <use xlink:href="#DejaVuSans-46"/>
      <use xlink:href="#DejaVuSans-72" x="50.269531"/>
      <use xlink:href="#DejaVuSans-65" x="89.132812"/>
      <use xlink:href="#DejaVuSans-71" x="150.65625"/>
      <use xlink:href="#DejaVuSans-75" x="214.132812"/>
      <use xlink:href="#DejaVuSans-65" x="277.511719"/>
      <use xlink:href="#DejaVuSans-6e" x="339.035156"/>
      <use xlink:href="#DejaVuSans-63" x="402.414062"/>
      <use xlink:href="#DejaVuSans-79" x="457.394531"/>
     </g>
    </g>
   </g>
   <g id="line2d_19">
    <path d="M 225.525625 301.8675 
L 225.525625 35.7555 
" clip-path="url(#p4d638075fc)" style="fill: none; stroke-dasharray: 5.55,2.4; stroke-dashoffset: 0; stroke: #000000; stroke-width: 1.5"/>
   </g>
   <g id="patch_25">
    <path d="M 46.965625 301.8675 
L 46.965625 35.7555 
" style="fill: none; stroke: #000000; stroke-width: 0.8; stroke-linejoin: miter; stroke-linecap: square"/>
   </g>
   <g id="patch_26">
    <path d="M 404.085625 301.8675 
L 404.085625 35.7555 
" style="fill: none; stroke: #000000; stroke-width: 0.8; stroke-linejoin: miter; stroke-linecap: square"/>
   </g>
   <g id="patch_27">
    <path d="M 46.965625 301.8675 
L 404.085625 301.8675 
" style="fill: none; stroke: #000000; stroke-width: 0.8; stroke-linejoin: miter; stroke-linecap: square"/>
   </g>
   <g id="patch_28">
    <path d="M 46.965625 35.7555 
L 404.085625 35.7555 
" style="fill: none; stroke: #000000; stroke-width: 0.8; stroke-linejoin: miter; stroke-linecap: square"/>
   </g>
   <g id="patch_29">
    <path d="M 67.316446 262.358079 
Q 58.142181 262.409743 50.085932 262.45511 
" style="fill: none; stroke: #000000; stroke-linecap: round"/>
    <path d="M 53.42726 264.10232 
L 50.085932 262.45511 
L 53.408497 260.770373 
" style="fill: none; stroke: #000000; stroke-linecap: round"/>
   </g>
   <g id="text_21">
    <!-- One outlier not shown -->
    <g transform="translate(71.314716 259.710707) scale(0.0833 -0.0833)">
     <defs>
      <path id="DejaVuSans-4f" d="M 2522 4238 
Q 1834 4238 1429 3725 
Q 1025 3213 1025 2328 
Q 1025 1447 1429 934 
Q 1834 422 2522 422 
Q 3209 422 3611 934 
Q 4013 1447 4013 2328 
Q 4013 3213 3611 3725 
Q 3209 4238 2522 4238 
z
M 2522 4750 
Q 3503 4750 4090 4092 
Q 4678 3434 4678 2328 
Q 4678 1225 4090 567 
Q 3503 -91 2522 -91 
Q 1538 -91 948 565 
Q 359 1222 359 2328 
Q 359 3434 948 4092 
Q 1538 4750 2522 4750 
z
" transform="scale(0.015625)"/>
      <path id="DejaVuSans-68" d="M 3513 2113 
L 3513 0 
L 2938 0 
L 2938 2094 
Q 2938 2591 2744 2837 
Q 2550 3084 2163 3084 
Q 1697 3084 1428 2787 
Q 1159 2491 1159 1978 
L 1159 0 
L 581 0 
L 581 4863 
L 1159 4863 
L 1159 2956 
Q 1366 3272 1645 3428 
Q 1925 3584 2291 3584 
Q 2894 3584 3203 3211 
Q 3513 2838 3513 2113 
z
" transform="scale(0.015625)"/>
      <path id="DejaVuSans-77" d="M 269 3500 
L 844 3500 
L 1563 769 
L 2278 3500 
L 2956 3500 
L 3675 769 
L 4391 3500 
L 4966 3500 
L 4050 0 
L 3372 0 
L 2619 2869 
L 1863 0 
L 1184 0 
L 269 3500 
z
" transform="scale(0.015625)"/>
     </defs>
     <use xlink:href="#DejaVuSans-4f"/>
     <use xlink:href="#DejaVuSans-6e" x="78.710938"/>
     <use xlink:href="#DejaVuSans-65" x="142.089844"/>
     <use xlink:href="#DejaVuSans-20" x="203.613281"/>
     <use xlink:href="#DejaVuSans-6f" x="235.400391"/>
     <use xlink:href="#DejaVuSans-75" x="296.582031"/>
     <use xlink:href="#DejaVuSans-74" x="359.960938"/>
     <use xlink:href="#DejaVuSans-6c" x="399.169922"/>
     <use xlink:href="#DejaVuSans-69" x="426.953125"/>
     <use xlink:href="#DejaVuSans-65" x="454.736328"/>
     <use xlink:href="#DejaVuSans-72" x="516.259766"/>
     <use xlink:href="#DejaVuSans-20" x="557.373047"/>
     <use xlink:href="#DejaVuSans-6e" x="589.160156"/>
     <use xlink:href="#DejaVuSans-6f" x="652.539062"/>
     <use xlink:href="#DejaVuSans-74" x="713.720703"/>
     <use xlink:href="#DejaVuSans-20" x="752.929688"/>
     <use xlink:href="#DejaVuSans-73" x="784.716797"/>
     <use xlink:href="#DejaVuSans-68" x="836.816406"/>
     <use xlink:href="#DejaVuSans-6f" x="900.195312"/>
     <use xlink:href="#DejaVuSans-77" x="961.376953"/>
     <use xlink:href="#DejaVuSans-6e" x="1043.164062"/>
    </g>
    <!-- (value -536.5) -->
    <g transform="translate(71.314716 269.038484) scale(0.0833 -0.0833)">
     <defs>
      <path id="DejaVuSans-76" d="M 191 3500 
L 800 3500 
L 1894 563 
L 2988 3500 
L 3597 3500 
L 2284 0 
L 1503 0 
L 191 3500 
z
" transform="scale(0.015625)"/>
      <path id="DejaVuSans-2d" d="M 313 2009 
L 1997 2009 
L 1997 1497 
L 313 1497 
L 313 2009 
z
" transform="scale(0.015625)"/>
      <path id="DejaVuSans-33" d="M 2597 2516 
Q 3050 2419 3304 2112 
Q 3559 1806 3559 1356 
Q 3559 666 3084 287 
Q 2609 -91 1734 -91 
Q 1441 -91 1130 -33 
Q 819 25 488 141 
L 488 750 
Q 750 597 1062 519 
Q 1375 441 1716 441 
Q 2309 441 2620 675 
Q 2931 909 2931 1356 
Q 2931 1769 2642 2001 
Q 2353 2234 1838 2234 
L 1294 2234 
L 1294 2753 
L 1863 2753 
Q 2328 2753 2575 2939 
Q 2822 3125 2822 3475 
Q 2822 3834 2567 4026 
Q 2313 4219 1838 4219 
Q 1578 4219 1281 4162 
Q 984 4106 628 3988 
L 628 4550 
Q 988 4650 1302 4700 
Q 1616 4750 1894 4750 
Q 2613 4750 3031 4423 
Q 3450 4097 3450 3541 
Q 3450 3153 3228 2886 
Q 3006 2619 2597 2516 
z
" transform="scale(0.015625)"/>
      <path id="DejaVuSans-36" d="M 2113 2584 
Q 1688 2584 1439 2293 
Q 1191 2003 1191 1497 
Q 1191 994 1439 701 
Q 1688 409 2113 409 
Q 2538 409 2786 701 
Q 3034 994 3034 1497 
Q 3034 2003 2786 2293 
Q 2538 2584 2113 2584 
z
M 3366 4563 
L 3366 3988 
Q 3128 4100 2886 4159 
Q 2644 4219 2406 4219 
Q 1781 4219 1451 3797 
Q 1122 3375 1075 2522 
Q 1259 2794 1537 2939 
Q 1816 3084 2150 3084 
Q 2853 3084 3261 2657 
Q 3669 2231 3669 1497 
Q 3669 778 3244 343 
Q 2819 -91 2113 -91 
Q 1303 -91 875 529 
Q 447 1150 447 2328 
Q 447 3434 972 4092 
Q 1497 4750 2381 4750 
Q 2619 4750 2861 4703 
Q 3103 4656 3366 4563 
z
" transform="scale(0.015625)"/>
      <path id="DejaVuSans-2e" d="M 684 794 
L 1344 794 
L 1344 0 
L 684 0 
L 684 794 
z
" transform="scale(0.015625)"/>
     </defs>
     <use xlink:href="#DejaVuSans-28"/>
     <use xlink:href="#DejaVuSans-76" x="39.013672"/>
     <use xlink:href="#DejaVuSans-61" x="98.193359"/>
     <use xlink:href="#DejaVuSans-6c" x="159.472656"/>
     <use xlink:href="#DejaVuSans-75" x="187.255859"/>
     <use xlink:href="#DejaVuSans-65" x="250.634766"/>
     <use xlink:href="#DejaVuSans-20" x="312.158203"/>
     <use xlink:href="#DejaVuSans-2d" x="343.945312"/>
     <use xlink:href="#DejaVuSans-35" x="380.029297"/>
     <use xlink:href="#DejaVuSans-33" x="443.652344"/>
     <use xlink:href="#DejaVuSans-36" x="507.275391"/>
     <use xlink:href="#DejaVuSans-2e" x="570.898438"/>
     <use xlink:href="#DejaVuSans-35" x="602.685547"/>
     <use xlink:href="#DejaVuSans-29" x="666.308594"/>
    </g>
   </g>
   <g id="text_22">
    <!-- Measurements where our model -->
    <g transform="translate(63.198352 62.736613) scale(0.0833 -0.0833)">
     <defs>
      <path id="DejaVuSans-4d" d="M 628 4666 
L 1569 4666 
L 2759 1491 
L 3956 4666 
L 4897 4666 
L 4897 0 
L 4281 0 
L 4281 4097 
L 3078 897 
L 2444 897 
L 1241 4097 
L 1241 0 
L 628 0 
L 628 4666 
z
" transform="scale(0.015625)"/>
     </defs>
     <use xlink:href="#DejaVuSans-4d"/>
     <use xlink:href="#DejaVuSans-65" x="86.279297"/>
     <use xlink:href="#DejaVuSans-61" x="147.802734"/>
     <use xlink:href="#DejaVuSans-73" x="209.082031"/>
     <use xlink:href="#DejaVuSans-75" x="261.181641"/>
     <use xlink:href="#DejaVuSans-72" x="324.560547"/>
     <use xlink:href="#DejaVuSans-65" x="363.423828"/>
     <use xlink:href="#DejaVuSans-6d" x="424.947266"/>
     <use xlink:href="#DejaVuSans-65" x="522.359375"/>
     <use xlink:href="#DejaVuSans-6e" x="583.882812"/>
     <use xlink:href="#DejaVuSans-74" x="647.261719"/>
     <use xlink:href="#DejaVuSans-73" x="686.470703"/>
     <use xlink:href="#DejaVuSans-20" x="738.570312"/>
     <use xlink:href="#DejaVuSans-77" x="770.357422"/>
     <use xlink:href="#DejaVuSans-68" x="852.144531"/>
     <use xlink:href="#DejaVuSans-65" x="915.523438"/>
     <use xlink:href="#DejaVuSans-72" x="977.046875"/>
     <use xlink:href="#DejaVuSans-65" x="1015.910156"/>
     <use xlink:href="#DejaVuSans-20" x="1077.433594"/>
     <use xlink:href="#DejaVuSans-6f" x="1109.220703"/>
     <use xlink:href="#DejaVuSans-75" x="1170.402344"/>
     <use xlink:href="#DejaVuSans-72" x="1233.78125"/>
     <use xlink:href="#DejaVuSans-20" x="1274.894531"/>
     <use xlink:href="#DejaVuSans-6d" x="1306.681641"/>
     <use xlink:href="#DejaVuSans-6f" x="1404.09375"/>
     <use xlink:href="#DejaVuSans-64" x="1465.275391"/>
     <use xlink:href="#DejaVuSans-65" x="1528.751953"/>
     <use xlink:href="#DejaVuSans-6c" x="1590.275391"/>
    </g>
    <!-- made a better prediction -->
    <g transform="translate(63.198352 72.064391) scale(0.0833 -0.0833)">
     <defs>
      <path id="DejaVuSans-70" d="M 1159 525 
L 1159 -1331 
L 581 -1331 
L 581 3500 
L 1159 3500 
L 1159 2969 
Q 1341 3281 1617 3432 
Q 1894 3584 2278 3584 
Q 2916 3584 3314 3078 
Q 3713 2572 3713 1747 
Q 3713 922 3314 415 
Q 2916 -91 2278 -91 
Q 1894 -91 1617 61 
Q 1341 213 1159 525 
z
M 3116 1747 
Q 3116 2381 2855 2742 
Q 2594 3103 2138 3103 
Q 1681 3103 1420 2742 
Q 1159 2381 1159 1747 
Q 1159 1113 1420 752 
Q 1681 391 2138 391 
Q 2594 391 2855 752 
Q 3116 1113 3116 1747 
z
" transform="scale(0.015625)"/>
     </defs>
     <use xlink:href="#DejaVuSans-6d"/>
     <use xlink:href="#DejaVuSans-61" x="97.412109"/>
     <use xlink:href="#DejaVuSans-64" x="158.691406"/>
     <use xlink:href="#DejaVuSans-65" x="222.167969"/>
     <use xlink:href="#DejaVuSans-20" x="283.691406"/>
     <use xlink:href="#DejaVuSans-61" x="315.478516"/>
     <use xlink:href="#DejaVuSans-20" x="376.757812"/>
     <use xlink:href="#DejaVuSans-62" x="408.544922"/>
     <use xlink:href="#DejaVuSans-65" x="472.021484"/>
     <use xlink:href="#DejaVuSans-74" x="533.544922"/>
     <use xlink:href="#DejaVuSans-74" x="572.753906"/>
     <use xlink:href="#DejaVuSans-65" x="611.962891"/>
     <use xlink:href="#DejaVuSans-72" x="673.486328"/>
     <use xlink:href="#DejaVuSans-20" x="714.599609"/>
     <use xlink:href="#DejaVuSans-70" x="746.386719"/>
     <use xlink:href="#DejaVuSans-72" x="809.863281"/>
     <use xlink:href="#DejaVuSans-65" x="848.726562"/>
     <use xlink:href="#DejaVuSans-64" x="910.25"/>
     <use xlink:href="#DejaVuSans-69" x="973.726562"/>
     <use xlink:href="#DejaVuSans-63" x="1001.509766"/>
     <use xlink:href="#DejaVuSans-74" x="1056.490234"/>
     <use xlink:href="#DejaVuSans-69" x="1095.699219"/>
     <use xlink:href="#DejaVuSans-6f" x="1123.482422"/>
     <use xlink:href="#DejaVuSans-6e" x="1184.664062"/>
    </g>
   </g>
   <g id="text_23">
    <!-- Measurements where component -->
    <g transform="translate(241.758352 62.736613) scale(0.0833 -0.0833)">
     <use xlink:href="#DejaVuSans-4d"/>
     <use xlink:href="#DejaVuSans-65" x="86.279297"/>
     <use xlink:href="#DejaVuSans-61" x="147.802734"/>
     <use xlink:href="#DejaVuSans-73" x="209.082031"/>
     <use xlink:href="#DejaVuSans-75" x="261.181641"/>
     <use xlink:href="#DejaVuSans-72" x="324.560547"/>
     <use xlink:href="#DejaVuSans-65" x="363.423828"/>
     <use xlink:href="#DejaVuSans-6d" x="424.947266"/>
     <use xlink:href="#DejaVuSans-65" x="522.359375"/>
     <use xlink:href="#DejaVuSans-6e" x="583.882812"/>
     <use xlink:href="#DejaVuSans-74" x="647.261719"/>
     <use xlink:href="#DejaVuSans-73" x="686.470703"/>
     <use xlink:href="#DejaVuSans-20" x="738.570312"/>
     <use xlink:href="#DejaVuSans-77" x="770.357422"/>
     <use xlink:href="#DejaVuSans-68" x="852.144531"/>
     <use xlink:href="#DejaVuSans-65" x="915.523438"/>
     <use xlink:href="#DejaVuSans-72" x="977.046875"/>
     <use xlink:href="#DejaVuSans-65" x="1015.910156"/>
     <use xlink:href="#DejaVuSans-20" x="1077.433594"/>
     <use xlink:href="#DejaVuSans-63" x="1109.220703"/>
     <use xlink:href="#DejaVuSans-6f" x="1164.201172"/>
     <use xlink:href="#DejaVuSans-6d" x="1225.382812"/>
     <use xlink:href="#DejaVuSans-70" x="1322.794922"/>
     <use xlink:href="#DejaVuSans-6f" x="1386.271484"/>
     <use xlink:href="#DejaVuSans-6e" x="1447.453125"/>
     <use xlink:href="#DejaVuSans-65" x="1510.832031"/>
     <use xlink:href="#DejaVuSans-6e" x="1572.355469"/>
     <use xlink:href="#DejaVuSans-74" x="1635.734375"/>
    </g>
    <!-- contribution made a better prediction -->
    <g transform="translate(241.758352 72.064391) scale(0.0833 -0.0833)">
     <use xlink:href="#DejaVuSans-63"/>
     <use xlink:href="#DejaVuSans-6f" x="54.980469"/>
     <use xlink:href="#DejaVuSans-6e" x="116.162109"/>
     <use xlink:href="#DejaVuSans-74" x="179.541016"/>
     <use xlink:href="#DejaVuSans-72" x="218.75"/>
     <use xlink:href="#DejaVuSans-69" x="259.863281"/>
     <use xlink:href="#DejaVuSans-62" x="287.646484"/>
     <use xlink:href="#DejaVuSans-75" x="351.123047"/>
     <use xlink:href="#DejaVuSans-74" x="414.501953"/>
     <use xlink:href="#DejaVuSans-69" x="453.710938"/>
     <use xlink:href="#DejaVuSans-6f" x="481.494141"/>
     <use xlink:href="#DejaVuSans-6e" x="542.675781"/>
     <use xlink:href="#DejaVuSans-20" x="606.054688"/>
     <use xlink:href="#DejaVuSans-6d" x="637.841797"/>
     <use xlink:href="#DejaVuSans-61" x="735.253906"/>
     <use xlink:href="#DejaVuSans-64" x="796.533203"/>
     <use xlink:href="#DejaVuSans-65" x="860.009766"/>
     <use xlink:href="#DejaVuSans-20" x="921.533203"/>
     <use xlink:href="#DejaVuSans-61" x="953.320312"/>
     <use xlink:href="#DejaVuSans-20" x="1014.599609"/>
     <use xlink:href="#DejaVuSans-62" x="1046.386719"/>
     <use xlink:href="#DejaVuSans-65" x="1109.863281"/>
     <use xlink:href="#DejaVuSans-74" x="1171.386719"/>
     <use xlink:href="#DejaVuSans-74" x="1210.595703"/>
     <use xlink:href="#DejaVuSans-65" x="1249.804688"/>
     <use xlink:href="#DejaVuSans-72" x="1311.328125"/>
     <use xlink:href="#DejaVuSans-20" x="1352.441406"/>
     <use xlink:href="#DejaVuSans-70" x="1384.228516"/>
     <use xlink:href="#DejaVuSans-72" x="1447.705078"/>
     <use xlink:href="#DejaVuSans-65" x="1486.568359"/>
     <use xlink:href="#DejaVuSans-64" x="1548.091797"/>
     <use xlink:href="#DejaVuSans-69" x="1611.568359"/>
     <use xlink:href="#DejaVuSans-63" x="1639.351562"/>
     <use xlink:href="#DejaVuSans-74" x="1694.332031"/>
     <use xlink:href="#DejaVuSans-69" x="1733.541016"/>
     <use xlink:href="#DejaVuSans-6f" x="1761.324219"/>
     <use xlink:href="#DejaVuSans-6e" x="1822.505859"/>
    </g>
   </g>
   <g id="text_24">
    <!-- Distribution of absolute residual differences for test measurements -->
    <g transform="translate(23.73625 16.318125) scale(0.12 -0.12)">
     <use xlink:href="#DejaVuSans-44"/>
     <use xlink:href="#DejaVuSans-69" x="77.001953"/>
     <use xlink:href="#DejaVuSans-73" x="104.785156"/>
     <use xlink:href="#DejaVuSans-74" x="156.884766"/>
     <use xlink:href="#DejaVuSans-72" x="196.09375"/>
     <use xlink:href="#DejaVuSans-69" x="237.207031"/>
     <use xlink:href="#DejaVuSans-62" x="264.990234"/>
     <use xlink:href="#DejaVuSans-75" x="328.466797"/>
     <use xlink:href="#DejaVuSans-74" x="391.845703"/>
     <use xlink:href="#DejaVuSans-69" x="431.054688"/>
     <use xlink:href="#DejaVuSans-6f" x="458.837891"/>
     <use xlink:href="#DejaVuSans-6e" x="520.019531"/>
     <use xlink:href="#DejaVuSans-20" x="583.398438"/>
     <use xlink:href="#DejaVuSans-6f" x="615.185547"/>
     <use xlink:href="#DejaVuSans-66" x="676.367188"/>
     <use xlink:href="#DejaVuSans-20" x="711.572266"/>
     <use xlink:href="#DejaVuSans-61" x="743.359375"/>
     <use xlink:href="#DejaVuSans-62" x="804.638672"/>
     <use xlink:href="#DejaVuSans-73" x="868.115234"/>
     <use xlink:href="#DejaVuSans-6f" x="920.214844"/>
     <use xlink:href="#DejaVuSans-6c" x="981.396484"/>
     <use xlink:href="#DejaVuSans-75" x="1009.179688"/>
     <use xlink:href="#DejaVuSans-74" x="1072.558594"/>
     <use xlink:href="#DejaVuSans-65" x="1111.767578"/>
     <use xlink:href="#DejaVuSans-20" x="1173.291016"/>
     <use xlink:href="#DejaVuSans-72" x="1205.078125"/>
     <use xlink:href="#DejaVuSans-65" x="1243.941406"/>
     <use xlink:href="#DejaVuSans-73" x="1305.464844"/>
     <use xlink:href="#DejaVuSans-69" x="1357.564453"/>
     <use xlink:href="#DejaVuSans-64" x="1385.347656"/>
     <use xlink:href="#DejaVuSans-75" x="1448.824219"/>
     <use xlink:href="#DejaVuSans-61" x="1512.203125"/>
     <use xlink:href="#DejaVuSans-6c" x="1573.482422"/>
     <use xlink:href="#DejaVuSans-20" x="1601.265625"/>
     <use xlink:href="#DejaVuSans-64" x="1633.052734"/>
     <use xlink:href="#DejaVuSans-69" x="1696.529297"/>
     <use xlink:href="#DejaVuSans-66" x="1724.3125"/>
     <use xlink:href="#DejaVuSans-66" x="1759.517578"/>
     <use xlink:href="#DejaVuSans-65" x="1794.722656"/>
     <use xlink:href="#DejaVuSans-72" x="1856.246094"/>
     <use xlink:href="#DejaVuSans-65" x="1895.109375"/>
     <use xlink:href="#DejaVuSans-6e" x="1956.632812"/>
     <use xlink:href="#DejaVuSans-63" x="2020.011719"/>
     <use xlink:href="#DejaVuSans-65" x="2074.992188"/>
     <use xlink:href="#DejaVuSans-73" x="2136.515625"/>
     <use xlink:href="#DejaVuSans-20" x="2188.615234"/>
     <use xlink:href="#DejaVuSans-66" x="2220.402344"/>
     <use xlink:href="#DejaVuSans-6f" x="2255.607422"/>
     <use xlink:href="#DejaVuSans-72" x="2316.789062"/>
     <use xlink:href="#DejaVuSans-20" x="2357.902344"/>
     <use xlink:href="#DejaVuSans-74" x="2389.689453"/>
     <use xlink:href="#DejaVuSans-65" x="2428.898438"/>
     <use xlink:href="#DejaVuSans-73" x="2490.421875"/>
     <use xlink:href="#DejaVuSans-74" x="2542.521484"/>
     <use xlink:href="#DejaVuSans-20" x="2581.730469"/>
     <use xlink:href="#DejaVuSans-6d" x="2613.517578"/>
     <use xlink:href="#DejaVuSans-65" x="2710.929688"/>
     <use xlink:href="#DejaVuSans-61" x="2772.453125"/>
     <use xlink:href="#DejaVuSans-73" x="2833.732422"/>
     <use xlink:href="#DejaVuSans-75" x="2885.832031"/>
     <use xlink:href="#DejaVuSans-72" x="2949.210938"/>
     <use xlink:href="#DejaVuSans-65" x="2988.074219"/>
     <use xlink:href="#DejaVuSans-6d" x="3049.597656"/>
     <use xlink:href="#DejaVuSans-65" x="3147.009766"/>
     <use xlink:href="#DejaVuSans-6e" x="3208.533203"/>
     <use xlink:href="#DejaVuSans-74" x="3271.912109"/>
     <use xlink:href="#DejaVuSans-73" x="3311.121094"/>
    </g>
    <!-- (our model - component contribution) -->
    <g transform="translate(112.120938 29.7555) scale(0.12 -0.12)">
     <use xlink:href="#DejaVuSans-28"/>
     <use xlink:href="#DejaVuSans-6f" x="39.013672"/>
     <use xlink:href="#DejaVuSans-75" x="100.195312"/>
     <use xlink:href="#DejaVuSans-72" x="163.574219"/>
     <use xlink:href="#DejaVuSans-20" x="204.6875"/>
     <use xlink:href="#DejaVuSans-6d" x="236.474609"/>
     <use xlink:href="#DejaVuSans-6f" x="333.886719"/>
     <use xlink:href="#DejaVuSans-64" x="395.068359"/>
     <use xlink:href="#DejaVuSans-65" x="458.544922"/>
     <use xlink:href="#DejaVuSans-6c" x="520.068359"/>
     <use xlink:href="#DejaVuSans-20" x="547.851562"/>
     <use xlink:href="#DejaVuSans-2d" x="579.638672"/>
     <use xlink:href="#DejaVuSans-20" x="615.722656"/>
     <use xlink:href="#DejaVuSans-63" x="647.509766"/>
     <use xlink:href="#DejaVuSans-6f" x="702.490234"/>
     <use xlink:href="#DejaVuSans-6d" x="763.671875"/>
     <use xlink:href="#DejaVuSans-70" x="861.083984"/>
     <use xlink:href="#DejaVuSans-6f" x="924.560547"/>
     <use xlink:href="#DejaVuSans-6e" x="985.742188"/>
     <use xlink:href="#DejaVuSans-65" x="1049.121094"/>
     <use xlink:href="#DejaVuSans-6e" x="1110.644531"/>
     <use xlink:href="#DejaVuSans-74" x="1174.023438"/>
     <use xlink:href="#DejaVuSans-20" x="1213.232422"/>
     <use xlink:href="#DejaVuSans-63" x="1245.019531"/>
     <use xlink:href="#DejaVuSans-6f" x="1300"/>
     <use xlink:href="#DejaVuSans-6e" x="1361.181641"/>
     <use xlink:href="#DejaVuSans-74" x="1424.560547"/>
     <use xlink:href="#DejaVuSans-72" x="1463.769531"/>
     <use xlink:href="#DejaVuSans-69" x="1504.882812"/>
     <use xlink:href="#DejaVuSans-62" x="1532.666016"/>
     <use xlink:href="#DejaVuSans-75" x="1596.142578"/>
     <use xlink:href="#DejaVuSans-74" x="1659.521484"/>
     <use xlink:href="#DejaVuSans-69" x="1698.730469"/>
     <use xlink:href="#DejaVuSans-6f" x="1726.513672"/>
     <use xlink:href="#DejaVuSans-6e" x="1787.695312"/>
     <use xlink:href="#DejaVuSans-29" x="1851.074219"/>
    </g>
   </g>
  </g>
 </g>
 <defs>
  <clipPath id="p4d638075fc">
   <rect x="46.965625" y="35.7555" width="357.12" height="266.112"/>
  </clipPath>
 </defs>
</svg>
